# Blender v2.63 (sub 0) OBJ File: 'arrow.blend'
# www.blender.org
mtllib arrow.mtl
o Cylinder_Cylinder.001
v 0.000000 0.000000 -0.025000
v 0.000000 0.500000 -0.025000
v 0.009567 0.000000 -0.023097
v 0.009567 0.500000 -0.023097
v 0.017678 0.000000 -0.017678
v 0.017678 0.500000 -0.017678
v 0.023097 0.000000 -0.009567
v 0.023097 0.500000 -0.009567
v 0.025000 0.000000 0.000000
v 0.025000 0.500000 0.000000
v 0.023097 0.000000 0.009567
v 0.023097 0.500000 0.009567
v 0.017678 0.000000 0.017678
v 0.017678 0.500000 0.017678
v 0.009567 0.000000 0.023097
v 0.009567 0.500000 0.023097
v 0.000000 0.000000 0.025000
v 0.000000 0.500000 0.025000
v -0.009567 0.000000 0.023097
v -0.009567 0.500000 0.023097
v -0.017678 0.000000 0.017678
v -0.017678 0.500000 0.017678
v -0.023097 0.000000 0.009567
v -0.023097 0.500000 0.009567
v -0.025000 0.000000 -0.000000
v -0.025000 0.500000 -0.000000
v -0.023097 0.000000 -0.009567
v -0.023097 0.500000 -0.009567
v -0.017678 0.000000 -0.017678
v -0.017678 0.500000 -0.017678
v -0.009567 0.000000 -0.023097
v -0.009567 0.500000 -0.023097
v -0.000000 0.500000 -0.041333
v 0.015817 0.500000 -0.038187
v 0.029227 0.500000 -0.029227
v 0.038187 0.500000 -0.015817
v 0.041333 0.500000 0.000000
v 0.038187 0.500000 0.015817
v 0.029227 0.500000 0.029227
v 0.015817 0.500000 0.038187
v 0.000000 0.500000 0.041333
v -0.015817 0.500000 0.038187
v -0.029227 0.500000 0.029227
v -0.038187 0.500000 0.015817
v -0.041333 0.500000 -0.000000
v -0.038187 0.500000 -0.015817
v -0.029227 0.500000 -0.029227
v -0.015817 0.500000 -0.038187
v 0.000000 0.577270 0.000000
vn 0.195090 0.000000 -0.980785
vn 0.555570 0.000000 -0.831470
vn 0.831470 0.000000 -0.555570
vn 0.980785 0.000000 -0.195090
vn 0.980785 0.000000 0.195090
vn 0.831470 0.000000 0.555570
vn 0.555570 0.000000 0.831470
vn 0.195090 0.000000 0.980785
vn -0.195090 0.000000 0.980785
vn -0.555570 0.000000 0.831470
vn -0.831469 0.000000 0.555570
vn -0.980785 0.000000 0.195090
vn -0.980785 0.000000 -0.195090
vn -0.831469 0.000000 -0.555570
vn 0.000000 -1.000000 -0.000000
vn -0.195090 0.000000 -0.980785
vn -0.555570 0.000000 -0.831470
vn -0.736292 0.464579 -0.491975
vn -0.172758 0.464579 0.868516
vn 0.868516 0.464579 -0.172759
vn -0.491975 0.464579 -0.736293
vn -0.491975 0.464579 0.736293
vn 0.868516 0.464579 0.172759
vn -0.172758 0.464579 -0.868516
vn -0.736292 0.464579 0.491975
vn 0.736292 0.464579 0.491975
vn 0.172759 0.464579 -0.868516
vn -0.868516 0.464579 0.172759
vn 0.491975 0.464579 0.736293
vn 0.491975 0.464579 -0.736293
vn -0.868516 0.464579 -0.172759
vn 0.172759 0.464579 0.868516
vn 0.736293 0.464579 -0.491975
usemtl 
s off
f 1//1 2//1 4//1
f 1//1 4//1 3//1
f 3//2 4//2 6//2
f 3//2 6//2 5//2
f 5//3 6//3 8//3
f 5//3 8//3 7//3
f 7//4 8//4 10//4
f 7//4 10//4 9//4
f 9//5 10//5 12//5
f 9//5 12//5 11//5
f 11//6 12//6 14//6
f 11//6 14//6 13//6
f 13//7 14//7 16//7
f 13//7 16//7 15//7
f 15//8 16//8 18//8
f 15//8 18//8 17//8
f 17//9 18//9 20//9
f 17//9 20//9 19//9
f 19//10 20//10 22//10
f 19//10 22//10 21//10
f 21//11 22//11 24//11
f 21//11 24//11 23//11
f 23//12 24//12 26//12
f 23//12 26//12 25//12
f 25//13 26//13 28//13
f 25//13 28//13 27//13
f 27//14 28//14 30//14
f 27//14 30//14 29//14
f 22//15 20//15 42//15
f 22//15 42//15 43//15
f 2//16 1//16 31//16
f 2//16 31//16 32//16
f 29//17 30//17 32//17
f 29//17 32//17 31//17
f 1//15 3//15 31//15
f 3//15 29//15 31//15
f 3//15 5//15 29//15
f 5//15 27//15 29//15
f 5//15 7//15 27//15
f 7//15 25//15 27//15
f 7//15 9//15 25//15
f 9//15 23//15 25//15
f 9//15 11//15 23//15
f 11//15 13//15 23//15
f 13//15 21//15 23//15
f 13//15 15//15 21//15
f 15//15 19//15 21//15
f 15//15 17//15 19//15
f 8//15 6//15 35//15
f 8//15 35//15 36//15
f 26//15 24//15 44//15
f 26//15 44//15 45//15
f 12//15 10//15 37//15
f 12//15 37//15 38//15
f 30//15 28//15 46//15
f 30//15 46//15 47//15
f 16//15 14//15 39//15
f 16//15 39//15 40//15
f 2//15 32//15 48//15
f 2//15 48//15 33//15
f 20//15 18//15 41//15
f 20//15 41//15 42//15
f 6//15 4//15 34//15
f 6//15 34//15 35//15
f 24//15 22//15 43//15
f 24//15 43//15 44//15
f 10//15 8//15 36//15
f 10//15 36//15 37//15
f 28//15 26//15 45//15
f 28//15 45//15 46//15
f 4//15 2//15 33//15
f 4//15 33//15 34//15
f 14//15 12//15 38//15
f 14//15 38//15 39//15
f 32//15 30//15 47//15
f 32//15 47//15 48//15
f 18//15 16//15 40//15
f 18//15 40//15 41//15
f 47//18 46//18 49//18
f 42//19 41//19 49//19
f 37//20 36//20 49//20
f 48//21 47//21 49//21
f 43//22 42//22 49//22
f 38//23 37//23 49//23
f 33//24 48//24 49//24
f 44//25 43//25 49//25
f 39//26 38//26 49//26
f 34//27 33//27 49//27
f 45//28 44//28 49//28
f 40//29 39//29 49//29
f 35//30 34//30 49//30
f 46//31 45//31 49//31
f 41//32 40//32 49//32
f 36//33 35//33 49//33
